<?xml version="1.0" encoding="utf-8"?>
<!-- Generator: Adobe Illustrator 26.0.1, SVG Export Plug-In . SVG Version: 6.00 Build 0)  -->
<svg version="1.1" id="Capa_1" xmlns="http://www.w3.org/2000/svg" xmlns:xlink="http://www.w3.org/1999/xlink" x="0px" y="0px"
	 viewBox="0 0 4000 1971" style="enable-background:new 0 0 4000 1971;" xml:space="preserve">
<style type="text/css">
	.st0{fill:#FFC200;}
	.st1{fill:#00FFAA;}
	.st2{fill:#DDDDDD;}
</style>
<g>
	<path class="st0" d="M2791.92,1814.28c-24.25,0-48.3-10.49-64.85-30.73c-29.24-35.79-23.94-88.5,11.85-117.75l851.76-696.06
		L2849.6,303.1c-34.36-30.91-37.16-83.82-6.25-118.18s83.82-37.16,118.18-6.25l813.62,731.9c18.16,16.33,28.27,39.78,27.69,64.2
		c-0.58,24.42-11.79,47.36-30.7,62.81l-927.32,757.8C2829.28,1808.1,2810.54,1814.28,2791.92,1814.28z"/>
	<polygon class="st1" points="2500.3,156.72 1865.97,1814.28 1677.14,1814.28 2312.73,156.72 	"/>
	<g>
		<path class="st2" d="M1396.98,264.96c83.94,71.28,125.92,166.32,125.92,285.11c0,19.01-3.19,50.71-9.5,95.04
			c-20.6,114.05-71.28,214.65-152.06,301.75c-80.78,87.13-189.3,144.93-325.5,173.44l292.24,693.77H1069.1l-275.61-677.14H534.51
			l-121.17,677.14H197.13L491.75,158.05h532.21C1188.68,158.05,1313.01,193.69,1396.98,264.96z M1297.19,566.71
			c0-76.03-24.95-134.61-74.84-175.82c-49.89-41.17-126.33-61.77-229.28-61.77h-316L565.4,963.49h318.38
			c117.2,0,209.86-28.88,277.99-86.72c68.09-57.8,110.85-135.02,128.3-231.65C1294.82,616.6,1297.19,590.47,1297.19,566.71z"/>
	</g>
</g>
</svg>
